<svg class="svg-icon" fill="#fff" viewBox="0 0 1024 1024" version="1.1" xmlns="http://www.w3.org/2000/svg"><path d="M556.305 846.062c0-154.961 125.62-280.581 280.581-280.581 19.419 0 38.378 1.975 56.687 5.73 8.654-7.636 14.205-19.578 14.203-32.371l0.004-68.667c0-20.286-13.943-38.442-32.101-40.664l-75.107-9.214a296.397 296.397 0 0 0-23.574-58.658l46.625-59.661c11.26-14.411 8.283-37.107-6.057-51.448l-48.553-48.555c-14.344-14.342-37.042-17.319-51.449-6.056l-57.967 45.298a297.14 297.14 0 0 0-60.077-25.689l-8.954-72.977c-2.219-18.151-20.374-32.096-40.658-32.096H481.24c-20.284 0-38.437 13.944-40.665 32.096l-8.74 71.291a296.96 296.96 0 0 0-61.938 25.203l-56.852-44.432c-14.409-11.263-37.11-8.286-51.449 6.058l-48.554 48.555c-14.341 14.342-17.32 37.036-6.058 51.448l44.095 56.419a297.199 297.199 0 0 0-25.624 61.764l-71.836 8.81c-18.155 2.225-32.097 20.377-32.097 40.658v68.672c-0.002 20.281 13.942 38.431 32.097 40.659l72.406 8.879a297.078 297.078 0 0 0 25.289 60.267l-45.634 58.388c-11.262 14.411-8.283 37.107 6.058 51.444l48.555 48.56c14.343 14.346 37.038 17.317 51.449 6.053l59.189-46.256a297.76 297.76 0 0 0 58.524 23.962l9.279 75.66c2.226 18.156 20.378 32.102 40.662 32.102h68.667c4.304 0 8.51-0.634 12.49-1.797a282.309 282.309 0 0 1-4.248-48.854z m-41.648-180.561c-89.43 0-161.922-72.494-161.922-161.919 0-89.423 72.493-161.915 161.922-161.915 89.425 0 161.913 72.491 161.913 161.915 0 89.425-72.488 161.919-161.913 161.919z"  /><path d="M852.709 713.759H685.484c-24.964 0-45.199 20.236-45.199 45.199v89.938c0 24.963 20.235 45.199 45.199 45.199h167.225c24.961 0 45.198-20.236 45.198-45.199v-89.938c0-24.963-20.237-45.199-45.198-45.199z"  /><path d="M722.007 732.607c-11.046 0-20-8.954-20-20V686.39c0-35.95 29.248-65.198 65.199-65.198h3.615c35.951 0 65.199 29.248 65.199 65.198v38.166h-40V686.39c0-13.895-11.305-25.198-25.199-25.198h-3.615c-13.895 0-25.199 11.304-25.199 25.198v26.218c0 11.045-8.954 19.999-20 19.999z"  /></svg>