<svg fill="#fff" xmlns="http://www.w3.org/2000/svg" width="50" height="50"><path d="M35.5 2a2.5 2.5 0 0 0-1.668.639 4.685 4.685 0 0 0-.125.127l-.137.154-.504.559-1.763 1.97c-1.455 1.625-3.386 3.785-5.315 5.942l-7.068 7.906-5.13-4.166-3.23-2.623-.915-.746-.247-.201-.056-.045-.002-.002h-.002A2.011 2.011 0 0 0 8 11c-.389 0-.493.079-.691.15a9.876 9.876 0 0 0-.649.268c-.472.21-1.022.481-1.555.75-1.065.538-2.056 1.072-2.056 1.072l.006.012A2.007 2.007 0 0 0 2 15v21c0 .784.47 1.466 1.137 1.793l-.004.008s.918.468 1.885.955c.483.243.979.491 1.378.69.4.197.623.314.854.408.23.093.487.146.75.146.352 0 .692-.096.984-.262l.002.002.104-.068.023-.016c.01-.007.014-.013.02-.017l.033-.026.098-.08.345-.287a6851.457 6851.457 0 0 0 4.863-4.066l4.58-3.834A39683.096 39683.096 0 0 0 32.435 45.86l.97 1.05.266.286.078.08c.02.022-.043-.029.088.088l.002.002c.44.393 1.03.633 1.662.633.37 0 .721-.088 1.04-.236l.003.007s2.405-1.244 4.846-2.51c1.22-.632 2.45-1.27 3.392-1.761.472-.245.872-.455 1.164-.607.292-.153.41-.211.543-.288A3.006 3.006 0 0 0 48 40V10a3.003 3.003 0 0 0-1.322-2.486c-.136-.092-.15-.091-.244-.143a194.527 194.527 0 0 0-1.549-.82A1057.4 1057.4 0 0 0 41.46 4.77C39 3.495 36.586 2.249 36.584 2.248h-.002A2.506 2.506 0 0 0 35.5 2zm0 2c.11 0 .198.03.28.084A.49.49 0 0 1 36 4.5v10.033l-11.291 9.465-1.182-.959-3.052-2.478A16164.07 16164.07 0 0 1 32.793 6.78l1.764-1.967c.214-.238.381-.427.498-.556l.12-.135A.482.482 0 0 1 35.5 4zM38 5.232c.922.477 1.26.649 2.541 1.313 1.229.637 2.468 1.282 3.418 1.78a198.057 198.057 0 0 1 1.514.8c.082.045.18.11.084.045h.002v.002c.265.18.441.476.441.828v30c0 .38-.204.697-.506.87.06-.036-.187.1-.476.251l-1.159.604c-.941.49-2.172 1.129-3.392 1.761L38 44.764V5.232zM8.027 13.023l.036.03.068.056.25.204.916.746 3.23 2.625 9.74 7.908L36 35.738V45.5a.482.482 0 0 1-.252.43l-.07.037A.524.524 0 0 1 35.5 46a.48.48 0 0 1-.326-.123l-.043-.047-.262-.281-.967-1.045-3.402-3.688c-2.804-3.04-6.526-7.079-10.244-11.115-3.719-4.036-7.433-8.07-10.225-11.097-1.395-1.515-2.56-2.778-3.379-3.665l-.826-.892c.091-.047.087-.047.18-.094a36.69 36.69 0 0 1 1.469-.709c.21-.093.393-.168.515-.213.016-.005.022-.004.037-.008zM4 15.018l.23.248c.221.238.545.586.954 1.029L7 18.265v14.376l-2.996 3.353C4.002 35.997 4.002 36 4 36V15.018zm32 2.125v16.02l-9.709-7.882L36 17.143zM9 20.436l4.52 4.906L9 30.4v-9.964zm5.88 6.382c.987 1.07 1.794 1.949 2.815 3.057l-4.506 3.771c-1.325 1.11-2.651 2.219-3.65 3.053L8.33 37.71l-.342.283-.002.002c.032.012-.318-.151-.703-.342-.392-.194-.884-.439-1.365-.681l-.072-.037 9.035-10.116zM8.01 37.994l.46.824-.472-.816L8 38l.01-.006z"/></svg>